<svg xmlns="http://www.w3.org/2000/svg" xmlns:xlink="http://www.w3.org/1999/xlink" width="715.677" height="973.168" viewBox="0 0 715.677 973.168"><defs><clipPath id="a"><rect width="507.394" height="871.542" fill="none" stroke="#d2d2d2" stroke-width="1"/></clipPath></defs><g transform="translate(-154.412 -1069.3)"><path d="M-1884.859,1827.632l96.879,6.984,69.618,66.689-97.329-7.435Z" transform="translate(2087 -83)" fill="#f5d010"/><g transform="matrix(-0.966, -0.259, 0.259, -0.966, 644.517, 2042.468)"><g clip-path="url(#a)"><path d="M359.927,46.921l-187.981,36-84.793-46.4,187.983-36Z" transform="translate(60.993 0.368)" fill="none" stroke="#d2d2d2" stroke-miterlimit="10" stroke-width="1"/></g><path d="M342.036,37.119l-187.981,36L112.717,50.468,300.384,14.531Z" transform="translate(78.883 10.17)" fill="none" stroke="#d2d2d2" stroke-miterlimit="10" stroke-width="1"/><path d="M359.927,266.16l-187.981,36-84.793-46.4,187.983-36Z" transform="translate(60.993 153.798)" fill="none" stroke="#d2d2d2" stroke-miterlimit="10" stroke-width="1"/><path d="M359.927,475.267l-187.981,36-84.793-46.4,187.983-36Z" transform="translate(60.993 300.138)" fill="none" stroke="#d2d2d2" stroke-miterlimit="10" stroke-width="1"/><line y2="727.927" transform="translate(148.147 36.889)" fill="none" stroke="#d2d2d2" stroke-miterlimit="10" stroke-width="1"/><line y2="727.927" transform="translate(191.285 60.637)" fill="none" stroke="#d2d2d2" stroke-miterlimit="10" stroke-width="1"/><line y2="727.927" transform="translate(378.824 24.701)" fill="none" stroke="#d2d2d2" stroke-miterlimit="10" stroke-width="1"/><g clip-path="url(#a)"><line y2="727.927" transform="translate(336.928 1.082)" fill="none" stroke="#d2d2d2" stroke-miterlimit="10" stroke-width="1"/></g><line y2="727.927" transform="translate(232.138 83.474)" fill="none" stroke="#d2d2d2" stroke-miterlimit="10" stroke-width="1"/><line y2="727.927" transform="translate(420.92 47.326)" fill="none" stroke="#d2d2d2" stroke-miterlimit="10" stroke-width="1"/><g clip-path="url(#a)"><path d="M409.339,120.931l-187.981,36-84.793-46.4,187.982-36Z" transform="translate(95.572 52.163)" fill="none" stroke="#d2d2d2" stroke-miterlimit="10" stroke-width="1"/><path d="M371.194,120.931l-95.333,18.608-84.791-46.4L286.4,74.536Z" transform="translate(133.717 52.163)" fill="none" stroke="#d2d2d2" stroke-miterlimit="10" stroke-width="1"/><path d="M409.339,502.473l-187.981,36-84.793-46.4,187.982-36Z" transform="translate(95.572 319.177)" fill="none" stroke="#d2d2d2" stroke-miterlimit="10" stroke-width="1"/></g><line y2="648.366" transform="translate(232.138 162.695)" fill="none" stroke="#d2d2d2" stroke-miterlimit="10" stroke-width="1"/><line y2="648.366" transform="translate(420.92 126.888)" fill="none" stroke="#d2d2d2" stroke-miterlimit="10" stroke-width="1"/><line y2="648.366" transform="translate(316.13 209.28)" fill="none" stroke="#d2d2d2" stroke-miterlimit="10" stroke-width="1"/><g clip-path="url(#a)"><line y2="648.366" transform="translate(504.911 173.132)" fill="none" stroke="#d2d2d2" stroke-miterlimit="10" stroke-width="1"/><path d="M274.234,207.509l-187.981,36L1.46,197.109l187.982-36Z" transform="translate(1.022 112.752)" fill="none" stroke="#d2d2d2" stroke-miterlimit="10" stroke-width="1"/><path d="M274.234,356.079l-187.981,36L1.46,345.679l187.982-36Z" transform="translate(1.022 216.726)" fill="none" stroke="#d2d2d2" stroke-miterlimit="10" stroke-width="1"/><path d="M274.234,510.123l-187.981,36L1.46,499.723l187.982-36Z" transform="translate(1.022 324.531)" fill="none" stroke="#d2d2d2" stroke-miterlimit="10" stroke-width="1"/><line y2="514.204" transform="translate(2.483 309.862)" fill="none" stroke="#d2d2d2" stroke-miterlimit="10" stroke-width="1"/></g><line y2="514.204" transform="translate(191.264 274.055)" fill="none" stroke="#d2d2d2" stroke-miterlimit="10" stroke-width="1"/><g clip-path="url(#a)"><line y2="514.204" transform="translate(86.475 356.447)" fill="none" stroke="#d2d2d2" stroke-miterlimit="10" stroke-width="1"/></g><line y2="514.204" transform="translate(275.256 320.299)" fill="none" stroke="#d2d2d2" stroke-miterlimit="10" stroke-width="1"/></g></g></svg>